<mxfile host="Electron" modified="2024-03-08T02:37:21.807Z" agent="Mozilla/5.0 (Windows NT 10.0; Win64; x64) AppleWebKit/537.36 (KHTML, like Gecko) draw.io/22.0.2 Chrome/114.0.5735.289 Electron/25.8.4 Safari/537.36" etag="XM-Cc_aqBUdDueB2RKbJ" version="22.0.2" type="device" pages="2">
  <diagram name="Gym ngữ cảnh mức 0" id="3W_67RVMOa5Dw0ZQtzYl">
    <mxGraphModel dx="779" dy="715" grid="1" gridSize="10" guides="1" tooltips="1" connect="1" arrows="1" fold="1" page="1" pageScale="1" pageWidth="850" pageHeight="1100" background="none" math="0" shadow="0">
      <root>
        <mxCell id="0" />
        <mxCell id="1" parent="0" />
        <mxCell id="3E-TD4cG24dpJVmnmVDn-5" value="" style="endArrow=classic;html=1;rounded=0;exitX=1;exitY=0.5;exitDx=0;exitDy=0;entryX=0;entryY=0.5;entryDx=0;entryDy=0;" edge="1" parent="1" source="3E-TD4cG24dpJVmnmVDn-39" target="3E-TD4cG24dpJVmnmVDn-6">
          <mxGeometry width="50" height="50" relative="1" as="geometry">
            <mxPoint x="200" y="360" as="sourcePoint" />
            <mxPoint x="250" y="310" as="targetPoint" />
          </mxGeometry>
        </mxCell>
        <mxCell id="pwri4QAW2f3e3dKpjLUB-2" value="Thông tin khách hàng,&lt;br&gt;dịch vụ, tiền" style="edgeLabel;html=1;align=center;verticalAlign=middle;resizable=0;points=[];" vertex="1" connectable="0" parent="3E-TD4cG24dpJVmnmVDn-5">
          <mxGeometry x="-0.0633" y="1" relative="1" as="geometry">
            <mxPoint as="offset" />
          </mxGeometry>
        </mxCell>
        <mxCell id="3E-TD4cG24dpJVmnmVDn-6" value="Hệ thống đăng lí dịch vụ tập" style="ellipse;whiteSpace=wrap;html=1;fillColor=#dae8fc;strokeColor=#6c8ebf;" vertex="1" parent="1">
          <mxGeometry x="350" y="330" width="80" height="80" as="geometry" />
        </mxCell>
        <mxCell id="3E-TD4cG24dpJVmnmVDn-39" value="Khách hàng" style="html=1;dashed=0;whiteSpace=wrap;fillColor=#e1d5e7;strokeColor=#9673a6;" vertex="1" parent="1">
          <mxGeometry x="40" y="345" width="100" height="50" as="geometry" />
        </mxCell>
        <mxCell id="pwri4QAW2f3e3dKpjLUB-1" value="" style="endArrow=classic;html=1;rounded=0;exitX=1;exitY=0.5;exitDx=0;exitDy=0;entryX=0;entryY=0.5;entryDx=0;entryDy=0;" edge="1" parent="1" source="3E-TD4cG24dpJVmnmVDn-6" target="pwri4QAW2f3e3dKpjLUB-4">
          <mxGeometry width="50" height="50" relative="1" as="geometry">
            <mxPoint x="440" y="369.44" as="sourcePoint" />
            <mxPoint x="540" y="369.44" as="targetPoint" />
          </mxGeometry>
        </mxCell>
        <mxCell id="pwri4QAW2f3e3dKpjLUB-5" value="Hóa đơn , thẻ tập" style="edgeLabel;html=1;align=center;verticalAlign=middle;resizable=0;points=[];" vertex="1" connectable="0" parent="pwri4QAW2f3e3dKpjLUB-1">
          <mxGeometry x="0.0281" y="2" relative="1" as="geometry">
            <mxPoint as="offset" />
          </mxGeometry>
        </mxCell>
        <mxCell id="pwri4QAW2f3e3dKpjLUB-4" value="Khách hàng" style="html=1;dashed=0;whiteSpace=wrap;fillColor=#e1d5e7;strokeColor=#9673a6;" vertex="1" parent="1">
          <mxGeometry x="620" y="345" width="100" height="50" as="geometry" />
        </mxCell>
      </root>
    </mxGraphModel>
  </diagram>
  <diagram id="c2ciAitxCpjpLsNxt6Mu" name="Gym chi tiết mức 1">
    <mxGraphModel dx="918" dy="715" grid="1" gridSize="10" guides="1" tooltips="1" connect="1" arrows="1" fold="1" page="1" pageScale="1" pageWidth="850" pageHeight="1100" math="0" shadow="0">
      <root>
        <mxCell id="0" />
        <mxCell id="1" parent="0" />
        <mxCell id="sGm6AEHNfQSXEc0ERD3a-2" value="" style="endArrow=classic;html=1;rounded=0;exitX=1;exitY=0.5;exitDx=0;exitDy=0;entryX=0;entryY=0.5;entryDx=0;entryDy=0;" edge="1" parent="1" source="sGm6AEHNfQSXEc0ERD3a-5" target="sGm6AEHNfQSXEc0ERD3a-4">
          <mxGeometry width="50" height="50" relative="1" as="geometry">
            <mxPoint x="200" y="360" as="sourcePoint" />
            <mxPoint x="250" y="310" as="targetPoint" />
          </mxGeometry>
        </mxCell>
        <mxCell id="sGm6AEHNfQSXEc0ERD3a-3" value="Thông tin khách hàng,&lt;br&gt;dịch vụ, tiền" style="edgeLabel;html=1;align=center;verticalAlign=middle;resizable=0;points=[];" vertex="1" connectable="0" parent="sGm6AEHNfQSXEc0ERD3a-2">
          <mxGeometry x="-0.0633" y="1" relative="1" as="geometry">
            <mxPoint as="offset" />
          </mxGeometry>
        </mxCell>
        <mxCell id="sGm6AEHNfQSXEc0ERD3a-4" value="Hệ thống đăng kí dịch vụ tập" style="ellipse;whiteSpace=wrap;html=1;fillColor=#dae8fc;strokeColor=#6c8ebf;" vertex="1" parent="1">
          <mxGeometry x="350" y="330" width="80" height="80" as="geometry" />
        </mxCell>
        <mxCell id="sGm6AEHNfQSXEc0ERD3a-5" value="Khách hàng" style="html=1;dashed=0;whiteSpace=wrap;fillColor=#e1d5e7;strokeColor=#9673a6;" vertex="1" parent="1">
          <mxGeometry x="40" y="345" width="100" height="50" as="geometry" />
        </mxCell>
        <mxCell id="sGm6AEHNfQSXEc0ERD3a-6" value="" style="endArrow=classic;html=1;rounded=0;exitX=1;exitY=0.5;exitDx=0;exitDy=0;entryX=0;entryY=0.5;entryDx=0;entryDy=0;" edge="1" parent="1" source="sGm6AEHNfQSXEc0ERD3a-4" target="sGm6AEHNfQSXEc0ERD3a-8">
          <mxGeometry width="50" height="50" relative="1" as="geometry">
            <mxPoint x="440" y="369.44" as="sourcePoint" />
            <mxPoint x="540" y="369.44" as="targetPoint" />
          </mxGeometry>
        </mxCell>
        <mxCell id="sGm6AEHNfQSXEc0ERD3a-7" value="Hóa đơn , thẻ tập" style="edgeLabel;html=1;align=center;verticalAlign=middle;resizable=0;points=[];" vertex="1" connectable="0" parent="sGm6AEHNfQSXEc0ERD3a-6">
          <mxGeometry x="0.0281" y="2" relative="1" as="geometry">
            <mxPoint as="offset" />
          </mxGeometry>
        </mxCell>
        <mxCell id="sGm6AEHNfQSXEc0ERD3a-8" value="Khách hàng" style="html=1;dashed=0;whiteSpace=wrap;fillColor=#e1d5e7;strokeColor=#9673a6;" vertex="1" parent="1">
          <mxGeometry x="620" y="345" width="100" height="50" as="geometry" />
        </mxCell>
        <mxCell id="l_tGRU5QUmDXeycBSfiJ-1" value="Khách hàng" style="html=1;dashed=0;whiteSpace=wrap;fillColor=#e1d5e7;strokeColor=#9673a6;" vertex="1" parent="1">
          <mxGeometry x="40" y="550" width="100" height="50" as="geometry" />
        </mxCell>
        <mxCell id="l_tGRU5QUmDXeycBSfiJ-2" value="" style="endArrow=classic;html=1;rounded=0;exitX=1;exitY=0.5;exitDx=0;exitDy=0;entryX=0;entryY=0.5;entryDx=0;entryDy=0;" edge="1" parent="1">
          <mxGeometry width="50" height="50" relative="1" as="geometry">
            <mxPoint x="140" y="574.41" as="sourcePoint" />
            <mxPoint x="350" y="574.41" as="targetPoint" />
          </mxGeometry>
        </mxCell>
        <mxCell id="l_tGRU5QUmDXeycBSfiJ-3" value="Thông tin khách hàng" style="edgeLabel;html=1;align=center;verticalAlign=middle;resizable=0;points=[];" vertex="1" connectable="0" parent="l_tGRU5QUmDXeycBSfiJ-2">
          <mxGeometry x="-0.0633" y="1" relative="1" as="geometry">
            <mxPoint as="offset" />
          </mxGeometry>
        </mxCell>
        <mxCell id="l_tGRU5QUmDXeycBSfiJ-18" style="edgeStyle=orthogonalEdgeStyle;rounded=0;orthogonalLoop=1;jettySize=auto;html=1;curved=1;endArrow=block;endFill=1;" edge="1" parent="1" source="l_tGRU5QUmDXeycBSfiJ-4" target="l_tGRU5QUmDXeycBSfiJ-30">
          <mxGeometry relative="1" as="geometry">
            <mxPoint x="600" y="790" as="targetPoint" />
          </mxGeometry>
        </mxCell>
        <mxCell id="l_tGRU5QUmDXeycBSfiJ-4" value="Tiếp nhận thông tin khách hàng" style="ellipse;whiteSpace=wrap;html=1;fillColor=#dae8fc;strokeColor=#6c8ebf;" vertex="1" parent="1">
          <mxGeometry x="350" y="535" width="80" height="80" as="geometry" />
        </mxCell>
        <mxCell id="l_tGRU5QUmDXeycBSfiJ-20" style="rounded=0;orthogonalLoop=1;jettySize=auto;html=1;entryX=-0.019;entryY=0.391;entryDx=0;entryDy=0;entryPerimeter=0;" edge="1" parent="1" target="l_tGRU5QUmDXeycBSfiJ-19">
          <mxGeometry relative="1" as="geometry">
            <mxPoint x="129.04748240735887" y="809.9972183127464" as="sourcePoint" />
            <mxPoint x="270" y="841.32" as="targetPoint" />
          </mxGeometry>
        </mxCell>
        <mxCell id="l_tGRU5QUmDXeycBSfiJ-21" value="Thông tin dịch vụ" style="edgeLabel;html=1;align=center;verticalAlign=middle;resizable=0;points=[];" vertex="1" connectable="0" parent="l_tGRU5QUmDXeycBSfiJ-20">
          <mxGeometry x="-0.2842" y="1" relative="1" as="geometry">
            <mxPoint x="11" as="offset" />
          </mxGeometry>
        </mxCell>
        <mxCell id="i0lKNEkr108idyn92-xU-6" style="edgeStyle=orthogonalEdgeStyle;rounded=0;orthogonalLoop=1;jettySize=auto;html=1;curved=1;" edge="1" parent="1" target="i0lKNEkr108idyn92-xU-4">
          <mxGeometry relative="1" as="geometry">
            <mxPoint x="120" y="840" as="sourcePoint" />
            <mxPoint x="370" y="1150" as="targetPoint" />
            <Array as="points">
              <mxPoint x="150" y="840" />
              <mxPoint x="150" y="1150" />
            </Array>
          </mxGeometry>
        </mxCell>
        <mxCell id="i0lKNEkr108idyn92-xU-15" value="Thông tin dịch vụ" style="edgeLabel;html=1;align=center;verticalAlign=middle;resizable=0;points=[];" vertex="1" connectable="0" parent="i0lKNEkr108idyn92-xU-6">
          <mxGeometry x="-0.3156" y="7" relative="1" as="geometry">
            <mxPoint as="offset" />
          </mxGeometry>
        </mxCell>
        <mxCell id="l_tGRU5QUmDXeycBSfiJ-5" value="Chọn môn tập, dịch vụ" style="ellipse;whiteSpace=wrap;html=1;fillColor=#dae8fc;strokeColor=#6c8ebf;" vertex="1" parent="1">
          <mxGeometry x="50" y="770" width="80" height="80" as="geometry" />
        </mxCell>
        <mxCell id="l_tGRU5QUmDXeycBSfiJ-6" value="CV" style="endArrow=classic;html=1;rounded=0;exitX=0.5;exitY=1;exitDx=0;exitDy=0;entryX=0.5;entryY=0;entryDx=0;entryDy=0;" edge="1" parent="1" source="l_tGRU5QUmDXeycBSfiJ-1" target="l_tGRU5QUmDXeycBSfiJ-5">
          <mxGeometry width="50" height="50" relative="1" as="geometry">
            <mxPoint x="50" y="660" as="sourcePoint" />
            <mxPoint x="260" y="660" as="targetPoint" />
          </mxGeometry>
        </mxCell>
        <mxCell id="l_tGRU5QUmDXeycBSfiJ-7" value="Thông tin yêu cầu đăng ký" style="edgeLabel;html=1;align=center;verticalAlign=middle;resizable=0;points=[];" vertex="1" connectable="0" parent="l_tGRU5QUmDXeycBSfiJ-6">
          <mxGeometry x="-0.0633" y="1" relative="1" as="geometry">
            <mxPoint as="offset" />
          </mxGeometry>
        </mxCell>
        <mxCell id="l_tGRU5QUmDXeycBSfiJ-11" value="Môn tập" style="html=1;dashed=0;whiteSpace=wrap;shape=partialRectangle;right=0;fillColor=#ffe6cc;strokeColor=#d79b00;" vertex="1" parent="1">
          <mxGeometry x="40" y="980" width="100" height="30" as="geometry" />
        </mxCell>
        <mxCell id="l_tGRU5QUmDXeycBSfiJ-12" value="CV" style="endArrow=classic;html=1;rounded=0;entryX=0.5;entryY=1;entryDx=0;entryDy=0;" edge="1" parent="1" source="l_tGRU5QUmDXeycBSfiJ-11" target="l_tGRU5QUmDXeycBSfiJ-5">
          <mxGeometry width="50" height="50" relative="1" as="geometry">
            <mxPoint x="230" y="740" as="sourcePoint" />
            <mxPoint x="230" y="910" as="targetPoint" />
          </mxGeometry>
        </mxCell>
        <mxCell id="l_tGRU5QUmDXeycBSfiJ-13" value="Danh sách môn tập" style="edgeLabel;html=1;align=center;verticalAlign=middle;resizable=0;points=[];" vertex="1" connectable="0" parent="l_tGRU5QUmDXeycBSfiJ-12">
          <mxGeometry x="-0.0633" y="1" relative="1" as="geometry">
            <mxPoint as="offset" />
          </mxGeometry>
        </mxCell>
        <mxCell id="l_tGRU5QUmDXeycBSfiJ-23" style="rounded=0;orthogonalLoop=1;jettySize=auto;html=1;entryX=0.5;entryY=1;entryDx=0;entryDy=0;" edge="1" parent="1" source="l_tGRU5QUmDXeycBSfiJ-19" target="l_tGRU5QUmDXeycBSfiJ-22">
          <mxGeometry relative="1" as="geometry" />
        </mxCell>
        <mxCell id="l_tGRU5QUmDXeycBSfiJ-24" value="Tiền dịch vụ" style="edgeLabel;html=1;align=center;verticalAlign=middle;resizable=0;points=[];" vertex="1" connectable="0" parent="l_tGRU5QUmDXeycBSfiJ-23">
          <mxGeometry x="0.2797" y="-4" relative="1" as="geometry">
            <mxPoint x="3" y="14" as="offset" />
          </mxGeometry>
        </mxCell>
        <mxCell id="l_tGRU5QUmDXeycBSfiJ-19" value="Tính tiền dịch vụ" style="ellipse;whiteSpace=wrap;html=1;fillColor=#dae8fc;strokeColor=#6c8ebf;" vertex="1" parent="1">
          <mxGeometry x="310" y="810" width="80" height="80" as="geometry" />
        </mxCell>
        <mxCell id="l_tGRU5QUmDXeycBSfiJ-28" style="rounded=0;orthogonalLoop=1;jettySize=auto;html=1;entryX=0;entryY=0.5;entryDx=0;entryDy=0;" edge="1" parent="1" source="l_tGRU5QUmDXeycBSfiJ-22" target="l_tGRU5QUmDXeycBSfiJ-27">
          <mxGeometry relative="1" as="geometry" />
        </mxCell>
        <mxCell id="l_tGRU5QUmDXeycBSfiJ-29" value="Thông tin hóa đơn" style="edgeLabel;html=1;align=center;verticalAlign=middle;resizable=0;points=[];" vertex="1" connectable="0" parent="l_tGRU5QUmDXeycBSfiJ-28">
          <mxGeometry x="-0.2816" y="-3" relative="1" as="geometry">
            <mxPoint x="21" y="-18" as="offset" />
          </mxGeometry>
        </mxCell>
        <mxCell id="l_tGRU5QUmDXeycBSfiJ-22" value="Lưu hóa đơn" style="ellipse;whiteSpace=wrap;html=1;fillColor=#dae8fc;strokeColor=#6c8ebf;" vertex="1" parent="1">
          <mxGeometry x="180" y="660" width="80" height="80" as="geometry" />
        </mxCell>
        <mxCell id="l_tGRU5QUmDXeycBSfiJ-25" style="rounded=0;orthogonalLoop=1;jettySize=auto;html=1;entryX=0.847;entryY=1.05;entryDx=0;entryDy=0;entryPerimeter=0;" edge="1" parent="1" source="l_tGRU5QUmDXeycBSfiJ-22" target="l_tGRU5QUmDXeycBSfiJ-1">
          <mxGeometry relative="1" as="geometry" />
        </mxCell>
        <mxCell id="i0lKNEkr108idyn92-xU-18" value="Thông tin&amp;nbsp; hóa đơn" style="edgeLabel;html=1;align=center;verticalAlign=middle;resizable=0;points=[];" vertex="1" connectable="0" parent="l_tGRU5QUmDXeycBSfiJ-25">
          <mxGeometry x="0.4674" y="-1" relative="1" as="geometry">
            <mxPoint x="7" y="10" as="offset" />
          </mxGeometry>
        </mxCell>
        <mxCell id="l_tGRU5QUmDXeycBSfiJ-27" value="Hóa đơn" style="html=1;dashed=0;whiteSpace=wrap;shape=partialRectangle;right=0;fillColor=#ffe6cc;strokeColor=#d79b00;" vertex="1" parent="1">
          <mxGeometry x="425" y="685" width="100" height="30" as="geometry" />
        </mxCell>
        <mxCell id="i0lKNEkr108idyn92-xU-11" style="rounded=0;orthogonalLoop=1;jettySize=auto;html=1;" edge="1" parent="1" source="l_tGRU5QUmDXeycBSfiJ-30" target="i0lKNEkr108idyn92-xU-4">
          <mxGeometry relative="1" as="geometry" />
        </mxCell>
        <mxCell id="i0lKNEkr108idyn92-xU-14" value="Thông tin khách hàng" style="edgeLabel;html=1;align=center;verticalAlign=middle;resizable=0;points=[];" vertex="1" connectable="0" parent="i0lKNEkr108idyn92-xU-11">
          <mxGeometry x="0.2146" y="-3" relative="1" as="geometry">
            <mxPoint x="15" y="-27" as="offset" />
          </mxGeometry>
        </mxCell>
        <mxCell id="l_tGRU5QUmDXeycBSfiJ-30" value="Khách hàng" style="html=1;dashed=0;whiteSpace=wrap;shape=partialRectangle;right=0;fillColor=#ffe6cc;strokeColor=#d79b00;" vertex="1" parent="1">
          <mxGeometry x="630" y="720" width="100" height="30" as="geometry" />
        </mxCell>
        <mxCell id="l_tGRU5QUmDXeycBSfiJ-31" style="rounded=0;orthogonalLoop=1;jettySize=auto;html=1;entryX=1;entryY=1;entryDx=0;entryDy=0;" edge="1" parent="1" source="l_tGRU5QUmDXeycBSfiJ-30" target="l_tGRU5QUmDXeycBSfiJ-22">
          <mxGeometry relative="1" as="geometry" />
        </mxCell>
        <mxCell id="i0lKNEkr108idyn92-xU-13" value="Thông tin khách hàng" style="edgeLabel;html=1;align=center;verticalAlign=middle;resizable=0;points=[];" vertex="1" connectable="0" parent="l_tGRU5QUmDXeycBSfiJ-31">
          <mxGeometry x="-0.1301" y="5" relative="1" as="geometry">
            <mxPoint x="-21" y="10" as="offset" />
          </mxGeometry>
        </mxCell>
        <mxCell id="i0lKNEkr108idyn92-xU-2" style="rounded=0;orthogonalLoop=1;jettySize=auto;html=1;entryX=0.5;entryY=1;entryDx=0;entryDy=0;" edge="1" parent="1" source="i0lKNEkr108idyn92-xU-1" target="l_tGRU5QUmDXeycBSfiJ-19">
          <mxGeometry relative="1" as="geometry" />
        </mxCell>
        <mxCell id="i0lKNEkr108idyn92-xU-17" value="Giá dịch vụ" style="edgeLabel;html=1;align=center;verticalAlign=middle;resizable=0;points=[];" vertex="1" connectable="0" parent="i0lKNEkr108idyn92-xU-2">
          <mxGeometry x="-0.2205" y="-3" relative="1" as="geometry">
            <mxPoint as="offset" />
          </mxGeometry>
        </mxCell>
        <mxCell id="i0lKNEkr108idyn92-xU-1" value="Dịch vụ" style="html=1;dashed=0;whiteSpace=wrap;shape=partialRectangle;right=0;fillColor=#ffe6cc;strokeColor=#d79b00;" vertex="1" parent="1">
          <mxGeometry x="220" y="970" width="100" height="30" as="geometry" />
        </mxCell>
        <mxCell id="i0lKNEkr108idyn92-xU-3" style="rounded=0;orthogonalLoop=1;jettySize=auto;html=1;entryX=0.997;entryY=0.766;entryDx=0;entryDy=0;entryPerimeter=0;" edge="1" parent="1" source="i0lKNEkr108idyn92-xU-1" target="l_tGRU5QUmDXeycBSfiJ-5">
          <mxGeometry relative="1" as="geometry" />
        </mxCell>
        <mxCell id="i0lKNEkr108idyn92-xU-16" value="Danh sách dịch vụ" style="edgeLabel;html=1;align=center;verticalAlign=middle;resizable=0;points=[];" vertex="1" connectable="0" parent="i0lKNEkr108idyn92-xU-3">
          <mxGeometry x="0.18" y="1" relative="1" as="geometry">
            <mxPoint x="29" y="22" as="offset" />
          </mxGeometry>
        </mxCell>
        <mxCell id="i0lKNEkr108idyn92-xU-8" style="rounded=0;orthogonalLoop=1;jettySize=auto;html=1;" edge="1" parent="1" source="i0lKNEkr108idyn92-xU-4" target="i0lKNEkr108idyn92-xU-7">
          <mxGeometry relative="1" as="geometry" />
        </mxCell>
        <mxCell id="i0lKNEkr108idyn92-xU-20" value="Thẻ tập" style="edgeLabel;html=1;align=center;verticalAlign=middle;resizable=0;points=[];" vertex="1" connectable="0" parent="i0lKNEkr108idyn92-xU-8">
          <mxGeometry x="-0.4216" y="4" relative="1" as="geometry">
            <mxPoint x="59" as="offset" />
          </mxGeometry>
        </mxCell>
        <mxCell id="i0lKNEkr108idyn92-xU-10" style="rounded=0;orthogonalLoop=1;jettySize=auto;html=1;entryX=0;entryY=0.5;entryDx=0;entryDy=0;" edge="1" parent="1" source="i0lKNEkr108idyn92-xU-4" target="i0lKNEkr108idyn92-xU-9">
          <mxGeometry relative="1" as="geometry" />
        </mxCell>
        <mxCell id="i0lKNEkr108idyn92-xU-19" value="Thông tin thẻ tập" style="edgeLabel;html=1;align=center;verticalAlign=middle;resizable=0;points=[];" vertex="1" connectable="0" parent="i0lKNEkr108idyn92-xU-10">
          <mxGeometry x="-0.3233" y="-4" relative="1" as="geometry">
            <mxPoint x="19" y="-27" as="offset" />
          </mxGeometry>
        </mxCell>
        <mxCell id="i0lKNEkr108idyn92-xU-4" value="Tạo thẻ tập" style="ellipse;whiteSpace=wrap;html=1;fillColor=#dae8fc;strokeColor=#6c8ebf;" vertex="1" parent="1">
          <mxGeometry x="360" y="955" width="80" height="80" as="geometry" />
        </mxCell>
        <mxCell id="i0lKNEkr108idyn92-xU-7" value="Khách hàng" style="html=1;dashed=0;whiteSpace=wrap;fillColor=#e1d5e7;strokeColor=#9673a6;" vertex="1" parent="1">
          <mxGeometry x="650" y="1035" width="100" height="50" as="geometry" />
        </mxCell>
        <mxCell id="i0lKNEkr108idyn92-xU-9" value="Thẻ tập" style="html=1;dashed=0;whiteSpace=wrap;shape=partialRectangle;right=0;fillColor=#ffe6cc;strokeColor=#d79b00;" vertex="1" parent="1">
          <mxGeometry x="620" y="910" width="100" height="30" as="geometry" />
        </mxCell>
      </root>
    </mxGraphModel>
  </diagram>
</mxfile>
